<?xml version="1.0" encoding="UTF-8" standalone="no"?>
<!-- Created with Inkscape (http://www.inkscape.org/) -->

<svg
   width="61.923534mm"
   height="73.806839mm"
   viewBox="0 0 61.923534 73.80684"
   version="1.1"
   id="svg5"
   xmlns="http://www.w3.org/2000/svg"
   xmlns:svg="http://www.w3.org/2000/svg">
  <defs
     id="defs2" />
  <g
     id="layer1"
     transform="translate(-70.227202,-78.582654)">
    <path
       style="fill:#ffffff;fill-opacity:1;stroke:#ffffff;stroke-width:4.6;stroke-linecap:round;stroke-linejoin:round;stroke-dasharray:none;stroke-opacity:1"
       id="path234"
       d="m 116.89487,115.60327 c -0.39989,0.69263 -22.287796,13.32962 -23.087573,13.32962 -0.799777,0 -22.687683,-12.63699 -23.087572,-13.32962 -0.399888,-0.69262 -0.399888,-25.9666 0,-26.659227 0.399889,-0.692627 22.287795,-13.329615 23.087572,-13.329615 0.799777,0 22.687683,12.636988 23.087573,13.329615 0.39989,0.692627 0.39989,25.966607 0,26.659227 z"
       transform="matrix(0.93162411,0,0,0.93162411,15.390106,10.281166)" />
    <path
       id="path10675"
       style="fill:#dc143c;stroke:#ffffff;stroke-width:4.98171;stroke-linecap:round;stroke-linejoin:round;stroke-dasharray:none;stroke-opacity:1;fill-opacity:1"
       d="M 122.17439,92.974514 C 103.07605,80.285541 103.21007,80.219186 84.34523,92.309028 c 17.9798,12.102362 19.22522,11.214642 37.82916,0.665486 z m -39.556834,1.63809 C 101.81276,104.7035 101.43494,105.84963 101.8063,127.15031 82.475291,117.34966 82.389409,117.77676 82.617556,94.612604 Z m 40.252064,-0.328485 c -19.19521,10.090891 -18.64805,11.406351 -19.01941,32.707031 19.75432,-9.37733 19.8402,-9.54287 19.01941,-32.707031 z" />
    <g
       aria-label="jocarsa"
       id="text1623"
       style="font-weight:bold;font-size:38.1133px;font-family:Ubuntu;-inkscape-font-specification:'Ubuntu Bold';fill:#ffffff;stroke:#000000;stroke-width:3.09606;stroke-linecap:round;stroke-linejoin:round;fill-opacity:1">
      <g
         id="g1744"
         transform="matrix(0.47912765,0,0,0.47912765,7.7538051,92.229506)"
         style="fill:#ffffff;fill-opacity:1">
        <path
           d="m 133.93441,123.6387 c -0.35572,0 -0.8766,-0.0381 -1.56264,-0.11434 -0.71145,-0.0762 -1.37208,-0.21598 -1.98189,-0.41925 l 0.76226,-4.61171 c 0.38113,0.12705 0.73686,0.21598 1.06717,0.2668 0.30491,0.0508 0.69875,0.0762 1.18152,0.0762 0.88931,0 1.51182,-0.26679 1.86755,-0.80038 0.35572,-0.53359 0.53358,-1.30856 0.53358,-2.32491 V 96.540142 h 5.67889 v 19.323448 c 0,2.64252 -0.64793,4.599 -1.94378,5.86944 -1.29585,1.27045 -3.16341,1.90567 -5.60266,1.90567 z"
           style="stroke:none;fill:#ffffff;fill-opacity:1"
           id="path1675" />
        <path
           d="m 165.56843,106.52583 q 0,2.36302 -0.68603,4.34491 -0.68604,1.94378 -1.9819,3.35397 -1.29585,1.37208 -3.12529,2.13435 -1.79132,0.76226 -4.04001,0.76226 -2.21057,0 -4.04001,-0.76226 -1.79132,-0.76227 -3.08717,-2.13435 -1.29586,-1.41019 -2.02001,-3.35397 -0.72415,-1.98189 -0.72415,-4.34491 0,-2.36303 0.72415,-4.30681 0.76227,-1.94377 2.05812,-3.315853 1.33396,-1.372079 3.12529,-2.134345 1.82944,-0.762266 3.96378,-0.762266 2.17246,0 3.96379,0.762266 1.82943,0.762266 3.12529,2.134345 1.29585,1.372083 2.02,3.315853 0.72415,1.94378 0.72415,4.30681 z m -5.79322,0 q 0,-2.62982 -1.06717,-4.11624 -1.02906,-1.52453 -2.97284,-1.52453 -1.94378,0 -3.01095,1.52453 -1.06717,1.48642 -1.06717,4.11624 0,2.62981 1.06717,4.19246 1.06717,1.52453 3.01095,1.52453 1.94378,0 2.97284,-1.52453 1.06717,-1.56265 1.06717,-4.19246 z"
           style="stroke:none;fill:#ffffff;fill-opacity:1"
           id="path1677" />
        <path
           d="m 168.99864,106.56394 q 0,-2.17246 0.68604,-4.07812 0.72416,-1.94378 2.05812,-3.353974 1.33397,-1.448305 3.23963,-2.286798 1.90567,-0.838492 4.34492,-0.838492 1.60076,0 2.93472,0.304906 1.33397,0.266793 2.59171,0.80038 l -1.18151,4.535478 q -0.80038,-0.3049 -1.75322,-0.53358 -0.95283,-0.22868 -2.13434,-0.22868 -2.51548,0 -3.77322,1.56264 -1.21962,1.56265 -1.21962,4.11624 0,2.70604 1.1434,4.19246 1.18151,1.48642 4.07812,1.48642 1.02906,0 2.21057,-0.19056 1.18151,-0.19057 2.17246,-0.60982 l 0.80038,4.64983 q -0.99095,0.41924 -2.47737,0.72415 -1.48642,0.3049 -3.27774,0.3049 -2.74416,0 -4.72605,-0.80038 -1.98189,-0.83849 -3.27774,-2.24868 -1.25774,-1.41019 -1.86756,-3.31586 -0.5717,-1.94378 -0.5717,-4.19246 z"
           style="stroke:none;fill:#ffffff;fill-opacity:1"
           id="path1679" />
        <path
           d="m 195.71608,112.62395 q 0.8385,0 1.60076,-0.0381 0.76227,-0.0381 1.21963,-0.11434 v -4.3068 q -0.34302,-0.0762 -1.02906,-0.15245 -0.68604,-0.0762 -1.25774,-0.0762 -0.80038,0 -1.52453,0.11434 -0.68604,0.0762 -1.21963,0.34302 -0.53358,0.26679 -0.83849,0.72415 -0.30491,0.45736 -0.30491,1.1434 0,1.33397 0.87661,1.86755 0.91472,0.49547 2.47736,0.49547 z m -0.45736,-16.617394 q 2.51548,0 4.19247,0.571699 1.67698,0.5717 2.66793,1.638872 1.02906,1.067173 1.4483,2.591703 0.41925,1.52453 0.41925,3.39209 v 11.81512 q -1.21963,0.26679 -3.39208,0.60981 -2.17246,0.38113 -5.25964,0.38113 -1.94378,0 -3.54454,-0.34302 -1.56264,-0.34302 -2.70604,-1.10528 -1.1434,-0.80038 -1.75321,-2.05812 -0.60982,-1.25774 -0.60982,-3.08718 0,-1.75321 0.68604,-2.97283 0.72416,-1.21963 1.90567,-1.94378 1.18151,-0.72416 2.70604,-1.02906 1.52453,-0.34302 3.16341,-0.34302 1.10528,0 1.94378,0.11434 0.8766,0.0762 1.41019,0.22868 v -0.53359 q 0,-1.4483 -0.87661,-2.32491 -0.8766,-0.8766 -3.04906,-0.8766 -1.44831,0 -2.8585,0.22867 -1.41019,0.19057 -2.43925,0.5717 l -0.72415,-4.573592 q 0.49547,-0.152453 1.21962,-0.304906 0.76227,-0.190567 1.63887,-0.304906 0.87661,-0.152454 1.82944,-0.22868 0.99095,-0.11434 1.98189,-0.11434 z"
           style="stroke:none;fill:#ffffff;fill-opacity:1"
           id="path1681" />
        <path
           d="m 221.21386,101.5711 q -0.76227,-0.19057 -1.79133,-0.38114 -1.02905,-0.22868 -2.21057,-0.22868 -0.53358,0 -1.29585,0.11434 -0.72415,0.0762 -1.10529,0.19057 v 15.32155 h -5.67888 V 97.607314 q 1.52454,-0.533586 3.58265,-0.990945 2.09623,-0.495473 4.64983,-0.495473 0.45736,0 1.10528,0.07623 0.64793,0.03811 1.29585,0.152454 0.64793,0.07623 1.29586,0.228679 0.64792,0.11434 1.10528,0.304907 z"
           style="stroke:none;fill:#ffffff;fill-opacity:1"
           id="path1683" />
        <path
           d="m 230.9709,112.50961 q 1.56264,0 2.21057,-0.3049 0.64793,-0.30491 0.64793,-1.18151 0,-0.68604 -0.8385,-1.18152 -0.83849,-0.53358 -2.55359,-1.18151 -1.33396,-0.49547 -2.43925,-1.02906 -1.06717,-0.53358 -1.82944,-1.25774 -0.76226,-0.76226 -1.18151,-1.79132 -0.41925,-1.02906 -0.41925,-2.47737 0,-2.82038 2.09624,-4.459252 2.09623,-1.638872 5.7551,-1.638872 1.82944,0 3.50643,0.34302 1.67698,0.304906 2.66793,0.686039 l -0.99095,4.421145 q -0.99094,-0.34302 -2.17246,-0.60981 -1.14339,-0.2668 -2.5917,-0.2668 -2.66793,0 -2.66793,1.48642 0,0.34302 0.11434,0.60981 0.11434,0.2668 0.45736,0.53359 0.34302,0.22868 0.91472,0.53359 0.60981,0.26679 1.52453,0.60981 1.86755,0.68604 3.08718,1.37208 1.21962,0.64792 1.90566,1.4483 0.72416,0.76227 0.99095,1.7151 0.3049,0.95283 0.3049,2.21057 0,2.97284 -2.24868,4.49737 -2.21057,1.52453 -6.28869,1.52453 -2.66794,0 -4.45926,-0.45736 -1.75321,-0.45735 -2.43925,-0.76226 l 0.95283,-4.61171 q 1.44831,0.5717 2.97284,0.91472 1.52453,0.3049 3.01095,0.3049 z"
           style="stroke:none;fill:#ffffff;fill-opacity:1"
           id="path1685" />
        <path
           d="m 251.36154,112.62395 q 0.83849,0 1.60076,-0.0381 0.76227,-0.0381 1.21963,-0.11434 v -4.3068 q -0.34302,-0.0762 -1.02906,-0.15245 -0.68604,-0.0762 -1.25774,-0.0762 -0.80038,0 -1.52453,0.11434 -0.68604,0.0762 -1.21963,0.34302 -0.53359,0.26679 -0.83849,0.72415 -0.30491,0.45736 -0.30491,1.1434 0,1.33397 0.87661,1.86755 0.91472,0.49547 2.47736,0.49547 z m -0.45736,-16.617394 q 2.51548,0 4.19246,0.571699 1.67699,0.5717 2.66794,1.638872 1.02905,1.067173 1.4483,2.591703 0.41925,1.52453 0.41925,3.39209 v 11.81512 q -1.21963,0.26679 -3.39209,0.60981 -2.17245,0.38113 -5.25963,0.38113 -1.94378,0 -3.54454,-0.34302 -1.56264,-0.34302 -2.70604,-1.10528 -1.1434,-0.80038 -1.75321,-2.05812 -0.60982,-1.25774 -0.60982,-3.08718 0,-1.75321 0.68604,-2.97283 0.72415,-1.21963 1.90567,-1.94378 1.18151,-0.72416 2.70604,-1.02906 1.52453,-0.34302 3.16341,-0.34302 1.10528,0 1.94377,0.11434 0.87661,0.0762 1.4102,0.22868 v -0.53359 q 0,-1.4483 -0.87661,-2.32491 -0.87661,-0.8766 -3.04906,-0.8766 -1.44831,0 -2.8585,0.22867 -1.41019,0.19057 -2.43925,0.5717 l -0.72416,-4.573592 q 0.49548,-0.152453 1.21963,-0.304906 0.76227,-0.190567 1.63887,-0.304906 0.87661,-0.152454 1.82944,-0.22868 0.99095,-0.11434 1.98189,-0.11434 z"
           style="stroke:none;fill:#ffffff;fill-opacity:1"
           id="path1687" />
      </g>
      <g
         aria-label="diseño, desarrollo, formación"
         id="text1800"
         style="font-size:6.62195px;stroke:none;stroke-width:0.537921;fill:#ffffff;fill-opacity:1"
         transform="matrix(0.50696949,0,0,0.50696949,4.4877151,91.758987)">
        <path
           d="m 161.87595,116.74655 q 0,0.45691 0.20528,0.73504 0.20528,0.27812 0.60922,0.27812 0.13244,0 0.24501,-0.007 0.11258,-0.0132 0.18542,-0.0265 v -1.79455 q -0.0927,-0.0596 -0.24501,-0.0993 -0.14569,-0.0397 -0.29799,-0.0397 -0.70193,0 -0.70193,0.95356 z m 2.2316,1.65549 q -0.13244,0.0397 -0.30461,0.0795 -0.17217,0.0331 -0.36421,0.0596 -0.18541,0.0265 -0.38407,0.0397 -0.19204,0.0199 -0.37083,0.0199 -0.43043,0 -0.76815,-0.12582 -0.33772,-0.12582 -0.56949,-0.35759 -0.23176,-0.23839 -0.35758,-0.56948 -0.1192,-0.33772 -0.1192,-0.75491 0,-0.4238 0.10596,-0.76152 0.10595,-0.34434 0.30461,-0.58273 0.19865,-0.23839 0.4834,-0.36421 0.29136,-0.12582 0.66219,-0.12582 0.20528,0 0.36421,0.0397 0.16555,0.0397 0.3311,0.11258 v -1.57603 l 0.98667,-0.15892 z"
           id="path3304"
           style="fill:#ffffff;fill-opacity:1" />
        <path
           d="m 166.02129,118.51461 h -0.98667 v -3.48315 h 0.98667 z m 0.0927,-4.48968 q 0,0.2715 -0.17879,0.43042 -0.17217,0.15231 -0.41056,0.15231 -0.23839,0 -0.41719,-0.15231 -0.17217,-0.15892 -0.17217,-0.43042 0,-0.2715 0.17217,-0.42381 0.1788,-0.15892 0.41719,-0.15892 0.23839,0 0.41056,0.15892 0.17879,0.15231 0.17879,0.42381 z"
           id="path3306"
           style="fill:#ffffff;fill-opacity:1" />
        <path
           d="m 167.94828,117.80606 q 0.2715,0 0.38407,-0.053 0.11257,-0.053 0.11257,-0.20528 0,-0.1192 -0.14568,-0.20528 -0.14568,-0.0927 -0.44367,-0.20529 -0.23177,-0.0861 -0.42381,-0.17879 -0.18541,-0.0927 -0.31785,-0.21852 -0.13244,-0.13244 -0.20528,-0.31123 -0.0728,-0.1788 -0.0728,-0.43043 0,-0.49003 0.36421,-0.77477 0.3642,-0.28474 0.99991,-0.28474 0.31785,0 0.60922,0.0596 0.29137,0.053 0.46354,0.1192 l -0.17217,0.76815 q -0.17217,-0.0596 -0.37746,-0.10596 -0.19865,-0.0464 -0.45029,-0.0464 -0.46353,0 -0.46353,0.25826 0,0.0596 0.0199,0.10595 0.0199,0.0464 0.0795,0.0927 0.0596,0.0397 0.15893,0.0927 0.10595,0.0464 0.26488,0.10595 0.32448,0.1192 0.53638,0.23839 0.2119,0.11258 0.3311,0.25164 0.12581,0.13244 0.17217,0.29799 0.053,0.16555 0.053,0.38407 0,0.51651 -0.39069,0.78139 -0.38408,0.26488 -1.09263,0.26488 -0.46353,0 -0.77476,-0.0795 -0.30461,-0.0795 -0.42381,-0.13243 l 0.16555,-0.80126 q 0.25163,0.0993 0.51651,0.15893 0.26488,0.053 0.52314,0.053 z"
           id="path3308"
           style="fill:#ffffff;fill-opacity:1" />
        <path
           d="m 169.99446,116.79953 q 0,-0.46354 0.13906,-0.80788 0.14569,-0.35097 0.37746,-0.58273 0.23176,-0.23177 0.52975,-0.35097 0.30461,-0.11919 0.62247,-0.11919 0.74165,0 1.17208,0.45691 0.43043,0.45029 0.43043,1.33101 0,0.0861 -0.007,0.19204 -0.007,0.0993 -0.0132,0.17879 h -2.23822 q 0.0331,0.30461 0.28475,0.48341 0.25163,0.17879 0.67543,0.17879 0.2715,0 0.52976,-0.0464 0.26488,-0.053 0.43043,-0.12581 l 0.13244,0.80125 q -0.0795,0.0397 -0.21191,0.0795 -0.13243,0.0397 -0.29798,0.0662 -0.15893,0.0331 -0.34434,0.053 -0.18542,0.0199 -0.37083,0.0199 -0.47016,0 -0.82113,-0.13906 -0.34434,-0.13906 -0.57611,-0.37745 -0.22514,-0.24502 -0.33772,-0.57611 -0.10595,-0.3311 -0.10595,-0.71517 z m 2.31769,-0.37746 q -0.007,-0.12581 -0.0464,-0.24501 -0.0331,-0.11919 -0.11257,-0.2119 -0.0728,-0.0927 -0.19204,-0.15231 -0.11257,-0.0596 -0.28474,-0.0596 -0.16555,0 -0.28474,0.0596 -0.1192,0.053 -0.19866,0.14569 -0.0795,0.0927 -0.12582,0.21852 -0.0397,0.1192 -0.0596,0.24501 z"
           id="path3310"
           style="fill:#ffffff;fill-opacity:1" />
        <path
           d="m 174.02723,115.15066 q 0.25163,-0.0728 0.64895,-0.13244 0.39732,-0.0662 0.83437,-0.0662 0.44367,0 0.73503,0.1192 0.29799,0.11257 0.47016,0.32447 0.17217,0.2119 0.24501,0.50327 0.0728,0.29137 0.0728,0.64895 v 1.96672 h -0.98667 v -1.84752 q 0,-0.47678 -0.12581,-0.67544 -0.12582,-0.19866 -0.47016,-0.19866 -0.10595,0 -0.22515,0.0132 -0.11919,0.007 -0.2119,0.0199 v 2.68851 h -0.98667 z m 2.72824,-1.33101 q -0.0397,0.0993 -0.11257,0.21852 -0.0662,0.1192 -0.16555,0.22515 -0.0993,0.0993 -0.22515,0.16555 -0.12581,0.0662 -0.27812,0.0662 -0.11919,0 -0.22514,-0.0331 -0.0993,-0.0397 -0.19866,-0.0795 -0.0993,-0.0463 -0.19866,-0.0795 -0.0993,-0.0397 -0.20528,-0.0397 -0.13244,0 -0.21853,0.0861 -0.0861,0.0861 -0.13906,0.19866 l -0.4834,-0.31785 q 0.0397,-0.0993 0.10595,-0.21853 0.0728,-0.11919 0.17217,-0.21852 0.0993,-0.10595 0.22515,-0.17217 0.12582,-0.0662 0.27812,-0.0662 0.1192,0 0.21852,0.0397 0.10596,0.0331 0.20529,0.0795 0.0993,0.0397 0.19203,0.0795 0.0993,0.0331 0.2119,0.0331 0.13244,0 0.21853,-0.0861 0.0861,-0.0861 0.13906,-0.19866 z"
           id="path3312"
           style="fill:#ffffff;fill-opacity:1" />
        <path
           d="m 181.18556,116.76642 q 0,0.41056 -0.11919,0.7549 -0.1192,0.33772 -0.34435,0.58273 -0.22514,0.23839 -0.54299,0.37083 -0.31124,0.13244 -0.70193,0.13244 -0.38407,0 -0.70193,-0.13244 -0.31123,-0.13244 -0.53638,-0.37083 -0.22514,-0.24501 -0.35096,-0.58273 -0.12582,-0.34434 -0.12582,-0.7549 0,-0.41057 0.12582,-0.74828 0.13244,-0.33772 0.35759,-0.57611 0.23176,-0.23839 0.543,-0.37083 0.31785,-0.13244 0.68868,-0.13244 0.37745,0 0.68868,0.13244 0.31785,0.13244 0.543,0.37083 0.22515,0.23839 0.35096,0.57611 0.12582,0.33771 0.12582,0.74828 z m -1.00653,0 q 0,-0.45692 -0.18542,-0.71518 -0.17879,-0.26487 -0.51651,-0.26487 -0.33772,0 -0.52314,0.26487 -0.18541,0.25826 -0.18541,0.71518 0,0.45691 0.18541,0.72841 0.18542,0.26488 0.52314,0.26488 0.33772,0 0.51651,-0.26488 0.18542,-0.2715 0.18542,-0.72841 z"
           id="path3314"
           style="fill:#ffffff;fill-opacity:1" />
        <path
           d="m 182.68212,117.50807 q 0.0132,0.15893 0.0132,0.22515 0.007,0.0662 0.007,0.11257 0,0.19866 -0.0397,0.42381 -0.0331,0.21852 -0.0993,0.44367 -0.0662,0.22515 -0.16555,0.45029 -0.0993,0.22515 -0.22515,0.43043 l -0.77477,-0.19204 q 0.15231,-0.43705 0.2119,-0.82112 0.0596,-0.38407 0.0596,-0.63571 0,-0.0397 -0.007,-0.0993 0,-0.0662 -0.007,-0.13244 0,-0.0662 -0.007,-0.12581 0,-0.0596 0,-0.0795 z"
           id="path3316"
           style="fill:#ffffff;fill-opacity:1" />
        <path
           d="m 185.80768,116.74655 q 0,0.45691 0.20528,0.73504 0.20528,0.27812 0.60922,0.27812 0.13244,0 0.24501,-0.007 0.11258,-0.0132 0.18542,-0.0265 v -1.79455 q -0.0927,-0.0596 -0.24501,-0.0993 -0.14569,-0.0397 -0.29799,-0.0397 -0.70193,0 -0.70193,0.95356 z m 2.2316,1.65549 q -0.13244,0.0397 -0.30461,0.0795 -0.17217,0.0331 -0.36421,0.0596 -0.18541,0.0265 -0.38407,0.0397 -0.19204,0.0199 -0.37083,0.0199 -0.43043,0 -0.76815,-0.12582 -0.33772,-0.12582 -0.56949,-0.35759 -0.23176,-0.23839 -0.35758,-0.56948 -0.1192,-0.33772 -0.1192,-0.75491 0,-0.4238 0.10596,-0.76152 0.10595,-0.34434 0.30461,-0.58273 0.19865,-0.23839 0.4834,-0.36421 0.29136,-0.12582 0.66219,-0.12582 0.20528,0 0.36421,0.0397 0.16555,0.0397 0.3311,0.11258 v -1.57603 l 0.98667,-0.15892 z"
           id="path3318"
           style="fill:#ffffff;fill-opacity:1" />
        <path
           d="m 188.8008,116.79953 q 0,-0.46354 0.13906,-0.80788 0.14569,-0.35097 0.37746,-0.58273 0.23176,-0.23177 0.52975,-0.35097 0.30461,-0.11919 0.62246,-0.11919 0.74166,0 1.17209,0.45691 0.43043,0.45029 0.43043,1.33101 0,0.0861 -0.007,0.19204 -0.007,0.0993 -0.0132,0.17879 h -2.23822 q 0.0331,0.30461 0.28475,0.48341 0.25163,0.17879 0.67543,0.17879 0.2715,0 0.52976,-0.0464 0.26488,-0.053 0.43043,-0.12581 l 0.13244,0.80125 q -0.0795,0.0397 -0.21191,0.0795 -0.13244,0.0397 -0.29798,0.0662 -0.15893,0.0331 -0.34435,0.053 -0.18541,0.0199 -0.37082,0.0199 -0.47016,0 -0.82113,-0.13906 -0.34434,-0.13906 -0.57611,-0.37745 -0.22514,-0.24502 -0.33772,-0.57611 -0.10595,-0.3311 -0.10595,-0.71517 z m 2.31769,-0.37746 q -0.007,-0.12581 -0.0464,-0.24501 -0.0331,-0.11919 -0.11257,-0.2119 -0.0728,-0.0927 -0.19204,-0.15231 -0.11257,-0.0596 -0.28474,-0.0596 -0.16555,0 -0.28475,0.0596 -0.11919,0.053 -0.19865,0.14569 -0.0795,0.0927 -0.12582,0.21852 -0.0397,0.1192 -0.0596,0.24501 z"
           id="path3320"
           style="fill:#ffffff;fill-opacity:1" />
        <path
           d="m 193.83348,117.80606 q 0.2715,0 0.38408,-0.053 0.11257,-0.053 0.11257,-0.20528 0,-0.1192 -0.14568,-0.20528 -0.14569,-0.0927 -0.44367,-0.20529 -0.23177,-0.0861 -0.42381,-0.17879 -0.18541,-0.0927 -0.31785,-0.21852 -0.13244,-0.13244 -0.20528,-0.31123 -0.0728,-0.1788 -0.0728,-0.43043 0,-0.49003 0.36421,-0.77477 0.36421,-0.28474 0.99992,-0.28474 0.31785,0 0.60922,0.0596 0.29136,0.053 0.46353,0.1192 l -0.17217,0.76815 q -0.17217,-0.0596 -0.37745,-0.10596 -0.19866,-0.0464 -0.45029,-0.0464 -0.46354,0 -0.46354,0.25826 0,0.0596 0.0199,0.10595 0.0199,0.0464 0.0795,0.0927 0.0596,0.0397 0.15893,0.0927 0.10595,0.0464 0.26488,0.10595 0.32447,0.1192 0.53637,0.23839 0.21191,0.11258 0.3311,0.25164 0.12582,0.13244 0.17217,0.29799 0.053,0.16555 0.053,0.38407 0,0.51651 -0.3907,0.78139 -0.38407,0.26488 -1.09262,0.26488 -0.46354,0 -0.77477,-0.0795 -0.30461,-0.0795 -0.4238,-0.13243 l 0.16555,-0.80126 q 0.25163,0.0993 0.51651,0.15893 0.26488,0.053 0.52313,0.053 z"
           id="path3322"
           style="fill:#ffffff;fill-opacity:1" />
        <path
           d="m 197.37623,117.82593 q 0.14568,0 0.27812,-0.007 0.13244,-0.007 0.2119,-0.0199 v -0.74828 q -0.0596,-0.0132 -0.17879,-0.0265 -0.11919,-0.0132 -0.21852,-0.0132 -0.13906,0 -0.26488,0.0199 -0.1192,0.0132 -0.2119,0.0596 -0.0927,0.0464 -0.14569,0.12582 -0.053,0.0795 -0.053,0.19866 0,0.23176 0.1523,0.32447 0.15893,0.0861 0.43043,0.0861 z m -0.0795,-2.88717 q 0.43704,0 0.72841,0.0993 0.29137,0.0993 0.46354,0.28474 0.17879,0.18541 0.25163,0.45029 0.0728,0.26488 0.0728,0.58936 v 2.0528 q -0.2119,0.0464 -0.58935,0.10595 -0.37745,0.0662 -0.91383,0.0662 -0.33772,0 -0.61584,-0.0596 -0.2715,-0.0596 -0.47016,-0.19203 -0.19866,-0.13906 -0.30461,-0.35759 -0.10595,-0.21852 -0.10595,-0.53638 0,-0.30461 0.11919,-0.51651 0.12582,-0.2119 0.3311,-0.33772 0.20528,-0.12581 0.47016,-0.17879 0.26488,-0.0596 0.54962,-0.0596 0.19204,0 0.33772,0.0199 0.15231,0.0132 0.24501,0.0397 v -0.0927 q 0,-0.25163 -0.1523,-0.40394 -0.15231,-0.1523 -0.52976,-0.1523 -0.25163,0 -0.49664,0.0397 -0.24502,0.0331 -0.42381,0.0993 l -0.12582,-0.79463 q 0.0861,-0.0265 0.21191,-0.053 0.13244,-0.0331 0.28474,-0.053 0.15231,-0.0265 0.31785,-0.0397 0.17217,-0.0199 0.34435,-0.0199 z"
           id="path3324"
           style="fill:#ffffff;fill-opacity:1" />
        <path
           d="m 201.80631,115.90556 q -0.13244,-0.0331 -0.31123,-0.0662 -0.17879,-0.0397 -0.38407,-0.0397 -0.0927,0 -0.22515,0.0199 -0.12582,0.0132 -0.19203,0.0331 v 2.66202 h -0.98668 v -3.29773 q 0.26488,-0.0927 0.62247,-0.17217 0.36421,-0.0861 0.80788,-0.0861 0.0795,0 0.19203,0.0132 0.11258,0.007 0.22515,0.0265 0.11257,0.0132 0.22514,0.0397 0.11258,0.0199 0.19204,0.053 z"
           id="path3326"
           style="fill:#ffffff;fill-opacity:1" />
        <path
           d="m 204.60078,115.90556 q -0.13244,-0.0331 -0.31123,-0.0662 -0.17879,-0.0397 -0.38407,-0.0397 -0.0927,0 -0.22515,0.0199 -0.12582,0.0132 -0.19204,0.0331 v 2.66202 h -0.98667 v -3.29773 q 0.26488,-0.0927 0.62247,-0.17217 0.3642,-0.0861 0.80787,-0.0861 0.0795,0 0.19204,0.0132 0.11257,0.007 0.22515,0.0265 0.11257,0.0132 0.22514,0.0397 0.11258,0.0199 0.19204,0.053 z"
           id="path3328"
           style="fill:#ffffff;fill-opacity:1" />
        <path
           d="m 208.48787,116.76642 q 0,0.41056 -0.11919,0.7549 -0.1192,0.33772 -0.34435,0.58273 -0.22514,0.23839 -0.543,0.37083 -0.31123,0.13244 -0.70192,0.13244 -0.38408,0 -0.70193,-0.13244 -0.31123,-0.13244 -0.53638,-0.37083 -0.22514,-0.24501 -0.35096,-0.58273 -0.12582,-0.34434 -0.12582,-0.7549 0,-0.41057 0.12582,-0.74828 0.13244,-0.33772 0.35758,-0.57611 0.23177,-0.23839 0.543,-0.37083 0.31786,-0.13244 0.68869,-0.13244 0.37745,0 0.68868,0.13244 0.31785,0.13244 0.543,0.37083 0.22515,0.23839 0.35096,0.57611 0.12582,0.33771 0.12582,0.74828 z m -1.00654,0 q 0,-0.45692 -0.18541,-0.71518 -0.17879,-0.26487 -0.51651,-0.26487 -0.33772,0 -0.52314,0.26487 -0.18541,0.25826 -0.18541,0.71518 0,0.45691 0.18541,0.72841 0.18542,0.26488 0.52314,0.26488 0.33772,0 0.51651,-0.26488 0.18541,-0.2715 0.18541,-0.72841 z"
           id="path3330"
           style="fill:#ffffff;fill-opacity:1" />
        <path
           d="m 210.64,118.58083 q -0.43042,-0.007 -0.70192,-0.0927 -0.26488,-0.0861 -0.42381,-0.23839 -0.1523,-0.15892 -0.2119,-0.37745 -0.053,-0.22515 -0.053,-0.50327 v -3.83411 l 0.98668,-0.15892 v 3.79437 q 0,0.13244 0.0199,0.23839 0.0199,0.10596 0.0728,0.1788 0.0596,0.0728 0.16555,0.11919 0.10595,0.0464 0.28475,0.0596 z"
           id="path3332"
           style="fill:#ffffff;fill-opacity:1" />
        <path
           d="m 212.73254,118.58083 q -0.43043,-0.007 -0.70193,-0.0927 -0.26487,-0.0861 -0.4238,-0.23839 -0.15231,-0.15892 -0.2119,-0.37745 -0.053,-0.22515 -0.053,-0.50327 v -3.83411 l 0.98667,-0.15892 v 3.79437 q 0,0.13244 0.0199,0.23839 0.0199,0.10596 0.0728,0.1788 0.0596,0.0728 0.16555,0.11919 0.10595,0.0464 0.28474,0.0596 z"
           id="path3334"
           style="fill:#ffffff;fill-opacity:1" />
        <path
           d="m 216.69247,116.76642 q 0,0.41056 -0.1192,0.7549 -0.11919,0.33772 -0.34434,0.58273 -0.22514,0.23839 -0.543,0.37083 -0.31123,0.13244 -0.70193,0.13244 -0.38407,0 -0.70192,-0.13244 -0.31123,-0.13244 -0.53638,-0.37083 -0.22515,-0.24501 -0.35096,-0.58273 -0.12582,-0.34434 -0.12582,-0.7549 0,-0.41057 0.12582,-0.74828 0.13244,-0.33772 0.35758,-0.57611 0.23177,-0.23839 0.543,-0.37083 0.31786,-0.13244 0.68868,-0.13244 0.37746,0 0.68869,0.13244 0.31785,0.13244 0.543,0.37083 0.22514,0.23839 0.35096,0.57611 0.12582,0.33771 0.12582,0.74828 z m -1.00654,0 q 0,-0.45692 -0.18541,-0.71518 -0.1788,-0.26487 -0.51652,-0.26487 -0.33771,0 -0.52313,0.26487 -0.18541,0.25826 -0.18541,0.71518 0,0.45691 0.18541,0.72841 0.18542,0.26488 0.52313,0.26488 0.33772,0 0.51652,-0.26488 0.18541,-0.2715 0.18541,-0.72841 z"
           id="path3336"
           style="fill:#ffffff;fill-opacity:1" />
        <path
           d="m 218.18903,117.50807 q 0.0132,0.15893 0.0132,0.22515 0.007,0.0662 0.007,0.11257 0,0.19866 -0.0397,0.42381 -0.0331,0.21852 -0.0993,0.44367 -0.0662,0.22515 -0.16555,0.45029 -0.0993,0.22515 -0.22514,0.43043 l -0.77477,-0.19204 q 0.1523,-0.43705 0.2119,-0.82112 0.0596,-0.38407 0.0596,-0.63571 0,-0.0397 -0.007,-0.0993 0,-0.0662 -0.007,-0.13244 0,-0.0662 -0.007,-0.12581 0,-0.0596 0,-0.0795 z"
           id="path3338"
           style="fill:#ffffff;fill-opacity:1" />
        <path
           d="m 221.9834,113.37598 q 0.27813,0 0.50989,0.0596 0.23177,0.053 0.35759,0.10596 l -0.19204,0.78801 q -0.13244,-0.0596 -0.29136,-0.0861 -0.15231,-0.0331 -0.28475,-0.0331 -0.17879,0 -0.30461,0.053 -0.11919,0.0464 -0.19203,0.13244 -0.0662,0.0861 -0.0993,0.20528 -0.0265,0.11919 -0.0265,0.25825 v 0.17217 h 1.21844 v 0.82113 h -1.21844 v 2.66202 h -0.98667 v -3.66856 q 0,-0.67544 0.37745,-1.07276 0.38407,-0.39731 1.13235,-0.39731 z"
           id="path3340"
           style="fill:#ffffff;fill-opacity:1" />
        <path
           d="m 226.4731,116.76642 q 0,0.41056 -0.1192,0.7549 -0.11919,0.33772 -0.34434,0.58273 -0.22515,0.23839 -0.543,0.37083 -0.31123,0.13244 -0.70193,0.13244 -0.38407,0 -0.70192,-0.13244 -0.31124,-0.13244 -0.53638,-0.37083 -0.22515,-0.24501 -0.35096,-0.58273 -0.12582,-0.34434 -0.12582,-0.7549 0,-0.41057 0.12582,-0.74828 0.13243,-0.33772 0.35758,-0.57611 0.23177,-0.23839 0.543,-0.37083 0.31785,-0.13244 0.68868,-0.13244 0.37745,0 0.68869,0.13244 0.31785,0.13244 0.543,0.37083 0.22514,0.23839 0.35096,0.57611 0.12582,0.33771 0.12582,0.74828 z m -1.00654,0 q 0,-0.45692 -0.18541,-0.71518 -0.1788,-0.26487 -0.51652,-0.26487 -0.33772,0 -0.52313,0.26487 -0.18542,0.25826 -0.18542,0.71518 0,0.45691 0.18542,0.72841 0.18541,0.26488 0.52313,0.26488 0.33772,0 0.51652,-0.26488 0.18541,-0.2715 0.18541,-0.72841 z"
           id="path3342"
           style="fill:#ffffff;fill-opacity:1" />
        <path
           d="m 229.33378,115.90556 q -0.13244,-0.0331 -0.31123,-0.0662 -0.17879,-0.0397 -0.38407,-0.0397 -0.0927,0 -0.22515,0.0199 -0.12582,0.0132 -0.19204,0.0331 v 2.66202 h -0.98667 v -3.29773 q 0.26488,-0.0927 0.62247,-0.17217 0.3642,-0.0861 0.80788,-0.0861 0.0795,0 0.19203,0.0132 0.11258,0.007 0.22515,0.0265 0.11257,0.0132 0.22514,0.0397 0.11258,0.0199 0.19204,0.053 z"
           id="path3344"
           style="fill:#ffffff;fill-opacity:1" />
        <path
           d="m 231.94283,116.66709 q 0,-0.47678 -0.12582,-0.67544 -0.11919,-0.19866 -0.41718,-0.19866 -0.0927,0 -0.19203,0.0132 -0.0993,0.007 -0.19204,0.0199 v 2.68851 h -0.98667 v -3.36395 q 0.12582,-0.0331 0.29136,-0.0662 0.17217,-0.0397 0.35759,-0.0662 0.19204,-0.0331 0.39069,-0.0464 0.19866,-0.0199 0.3907,-0.0199 0.37745,0 0.60922,0.0993 0.23839,0.0927 0.39069,0.22515 0.21191,-0.15231 0.48341,-0.23839 0.27812,-0.0861 0.50989,-0.0861 0.41718,0 0.68206,0.1192 0.2715,0.11257 0.43042,0.32447 0.15893,0.2119 0.21853,0.50327 0.0596,0.29137 0.0596,0.64895 v 1.96672 h -0.98667 V 116.667 q 0,-0.47678 -0.12582,-0.67544 -0.1192,-0.19866 -0.41718,-0.19866 -0.0795,0 -0.22515,0.0397 -0.13906,0.0397 -0.23177,0.0993 0.0463,0.1523 0.0596,0.32448 0.0132,0.16554 0.0132,0.35758 v 1.9005 h -0.98667 z"
           id="path3346"
           style="fill:#ffffff;fill-opacity:1" />
        <path
           d="m 237.06822,117.82593 q 0.14569,0 0.27812,-0.007 0.13244,-0.007 0.21191,-0.0199 v -0.74828 q -0.0596,-0.0132 -0.1788,-0.0265 -0.11919,-0.0132 -0.21852,-0.0132 -0.13906,0 -0.26488,0.0199 -0.11919,0.0132 -0.2119,0.0596 -0.0927,0.0464 -0.14568,0.12582 -0.053,0.0795 -0.053,0.19866 0,0.23176 0.15231,0.32447 0.15892,0.0861 0.43042,0.0861 z m -0.0795,-2.88717 q 0.43705,0 0.72841,0.0993 0.29137,0.0993 0.46354,0.28474 0.17879,0.18541 0.25163,0.45029 0.0728,0.26488 0.0728,0.58936 v 2.0528 q -0.21191,0.0464 -0.58936,0.10595 -0.37745,0.0662 -0.91383,0.0662 -0.33772,0 -0.61584,-0.0596 -0.2715,-0.0596 -0.47016,-0.19203 -0.19866,-0.13906 -0.30461,-0.35759 -0.10595,-0.21852 -0.10595,-0.53638 0,-0.30461 0.1192,-0.51651 0.12581,-0.2119 0.33109,-0.33772 0.20529,-0.12581 0.47016,-0.17879 0.26488,-0.0596 0.54963,-0.0596 0.19203,0 0.33771,0.0199 0.15231,0.0132 0.24502,0.0397 v -0.0927 q 0,-0.25163 -0.15231,-0.40394 -0.1523,-0.1523 -0.52975,-0.1523 -0.25164,0 -0.49665,0.0397 -0.24501,0.0331 -0.42381,0.0993 l -0.12581,-0.79463 q 0.0861,-0.0265 0.2119,-0.053 0.13244,-0.0331 0.28474,-0.053 0.15231,-0.0265 0.31786,-0.0397 0.17217,-0.0199 0.34434,-0.0199 z"
           id="path3348"
           style="fill:#ffffff;fill-opacity:1" />
        <path
           d="m 239.2336,116.77304 q 0,-0.37745 0.11919,-0.70855 0.12582,-0.33772 0.35759,-0.58273 0.23176,-0.25164 0.56286,-0.39732 0.3311,-0.14568 0.7549,-0.14568 0.27813,0 0.50989,0.053 0.23177,0.0464 0.4503,0.13906 l -0.20528,0.78802 q -0.13906,-0.053 -0.30461,-0.0927 -0.16555,-0.0397 -0.37083,-0.0397 -0.43705,0 -0.65558,0.2715 -0.2119,0.2715 -0.2119,0.71517 0,0.47016 0.19866,0.72841 0.20528,0.25826 0.70855,0.25826 0.17879,0 0.38407,-0.0331 0.20528,-0.0331 0.37745,-0.10595 l 0.13906,0.80787 q -0.17217,0.0728 -0.43042,0.12582 -0.25826,0.053 -0.56949,0.053 -0.47678,0 -0.82112,-0.13906 -0.34434,-0.14569 -0.56949,-0.3907 -0.21852,-0.24501 -0.32448,-0.57611 -0.0993,-0.33772 -0.0993,-0.72841 z"
           id="path3350"
           style="fill:#ffffff;fill-opacity:1" />
        <path
           d="m 243.69679,118.51461 h -0.98667 v -3.48315 h 0.98667 z m 0.0927,-4.48968 q 0,0.2715 -0.1788,0.43042 -0.17217,0.15231 -0.41056,0.15231 -0.23839,0 -0.41718,-0.15231 -0.17217,-0.15892 -0.17217,-0.43042 0,-0.2715 0.17217,-0.42381 0.17879,-0.15892 0.41718,-0.15892 0.23839,0 0.41056,0.15892 0.1788,0.15231 0.1788,0.42381 z"
           id="path3352"
           style="fill:#ffffff;fill-opacity:1" />
        <path
           d="m 247.88186,116.76642 q 0,0.41056 -0.1192,0.7549 -0.11919,0.33772 -0.34434,0.58273 -0.22514,0.23839 -0.543,0.37083 -0.31123,0.13244 -0.70192,0.13244 -0.38408,0 -0.70193,-0.13244 -0.31123,-0.13244 -0.53638,-0.37083 -0.22514,-0.24501 -0.35096,-0.58273 -0.12582,-0.34434 -0.12582,-0.7549 0,-0.41057 0.12582,-0.74828 0.13244,-0.33772 0.35758,-0.57611 0.23177,-0.23839 0.543,-0.37083 0.31786,-0.13244 0.68869,-0.13244 0.37745,0 0.68868,0.13244 0.31785,0.13244 0.543,0.37083 0.22515,0.23839 0.35096,0.57611 0.12582,0.33771 0.12582,0.74828 z m -1.00654,0 q 0,-0.45692 -0.18541,-0.71518 -0.17879,-0.26487 -0.51651,-0.26487 -0.33772,0 -0.52314,0.26487 -0.18541,0.25826 -0.18541,0.71518 0,0.45691 0.18541,0.72841 0.18542,0.26488 0.52314,0.26488 0.33772,0 0.51651,-0.26488 0.18541,-0.2715 0.18541,-0.72841 z m 0.11258,-2.9865 -1.09262,0.92045 -0.4503,-0.40394 0.94032,-1.07276 z"
           id="path3354"
           style="fill:#ffffff;fill-opacity:1" />
        <path
           d="m 248.64338,115.15066 q 0.25164,-0.0728 0.64896,-0.13244 0.39731,-0.0662 0.83436,-0.0662 0.44367,0 0.73504,0.1192 0.29799,0.11257 0.47016,0.32447 0.17217,0.2119 0.24501,0.50327 0.0728,0.29137 0.0728,0.64895 v 1.96672 h -0.98667 v -1.84752 q 0,-0.47678 -0.12582,-0.67544 -0.12582,-0.19866 -0.47016,-0.19866 -0.10595,0 -0.22514,0.0132 -0.1192,0.007 -0.21191,0.0199 v 2.68851 h -0.98667 z"
           id="path3356"
           style="fill:#ffffff;fill-opacity:1" />
      </g>
    </g>
  </g>
</svg>
